<svg viewBox="0 0 640 400" data-background-color="#ffffff" preserveAspectRatio="xMidYMid meet" height="400" width="640" xmlns="http://www.w3.org/2000/svg" xmlns:xlink="http://www.w3.org/1999/xlink"><rect width="640" height="400" x="0" y="0" opacity="1" fill="#ffffff" data-fill-palette-color="background" id="background"></rect><g id="tight-bounds" transform="matrix(1,0,0,1,160,20)"><svg viewBox="0 0 320 360" height="360" width="320"><g><svg></svg></g><g><svg viewBox="0 0 320 360" height="360" width="320"><g><path d="M20.961 227.22l3.726 4.658-1.863-6.056c-0.466-2.795-3.726 0.466-1.863 1.398M25.153 224.425c1.397 2.329 2.795 4.658 2.795 6.987 0 3.261 2.795 4.658 5.123 5.589-3.261-3.726-5.124-13.974-7.918-12.576M204.017 26.929c7.918 0 15.371-0.932 23.756 0.931 20.495 5.124 37.729 15.371 49.374 29.811l32.606 52.169c1.397 13.042 4.192 27.482 3.726 43.319 3.261 0 2.795-4.658 6.521-5.59-3.726 9.316-5.59 20.961-6.521 34.469-2.329-7.453 0-18.632 0.466-24.687-3.261 5.124-5.124 1.397-5.124-0.932 0.466-3.726-1.397-3.261-2.795-4.658-5.124-4.658-8.384-9.782-12.11-17.7 2.329-6.055 2.795-14.905-4.658-19.563-2.329-1.397-5.124-3.726-6.521-7.453-1.863-5.124-5.124-11.179-4.193-19.097 0.466-2.329-6.987 5.124-11.179 1.863-18.166-12.576-36.332-27.016-58.224-39.127-11.645 0-20.029-4.192-24.221-9.316-3.726-4.658-0.932-10.713 4.658-11.179 3.261 0 6.987-0.932 9.782 0.932 0.466-1.863 2.329-4.192 4.657-4.192M157.904 16.215l0.932 0.466c4.658 0.932 6.987 7.453 12.11 5.124 0 3.261 0.466 6.521-0.466 8.85-1.397 3.726-5.59 3.726-8.85 3.726-31.208-1.863-49.374 11.179-68.471 22.358-5.124 3.261-10.713 5.59-14.906 9.782-20.029 18.632-41.921 35.866-47.045 70.335l-4.192 38.195c-0.466 4.192-5.124 8.384-4.192 13.508l3.26 22.824c-3.261-3.261-5.124 0.932-4.192 2.795 0.466 1.397 2.329 6.055 5.124 1.863 3.726 6.987 7.453 20.495 12.576 26.55 15.837 18.632 36.332 35.4 53.101 52.169 4.192-0.932 7.453-0.932 8.384-3.727 1.397 2.795-1.397 5.59-3.726 6.056 7.453 4.658 15.837 8.85 27.016 9.781 14.44 0.932 27.948 3.261 40.524 6.522 6.521-1.863 13.042-2.795 20.029-3.261 2.329 0 3.726-3.726 6.521-4.658l0.466-4.658c2.795 4.192 2.329-1.397 0.466-4.192 3.261 2.795 4.192 5.124 5.589 6.987 0-1.397 3.726-6.521 3.727-0.466l0.931-6.055c1.397-0.932 1.863 5.124 3.261 0.931 1.397-4.192 4.192-0.932 6.987-2.329-0.932 1.863-0.466 5.59 2.794 3.261l3.727-3.261c2.329 5.59 6.055 3.261 7.918 2.329 20.495-13.042 40.99-28.413 60.553-43.784l-0.466 6.055 2.329-7.453c2.329 2.329 4.192 0.466 5.124-0.931 2.795-4.658 6.521-9.316 12.577-13.508-7.453 20.029-16.303 35.866-27.482 48.908l-4.658 5.59c0 3.261-0.932 7.453-4.658 7.918-1.863 0.466-5.59-0.932-8.384 1.863-1.397 1.863 3.261 5.59-0.466 2.795-3.261-2.329-6.521 0-10.248 0.932-2.795 0.932 1.863 3.726 2.795 5.589 0.932 1.863 1.863 3.726 1.398 6.056l-5.124-5.59c-6.055 3.261-9.782 9.316-14.906 13.974-2.329 1.863-1.397 5.124-1.397 7.918-3.261 0-6.987-0.932-8.85 0.932-1.397 1.863-0.932 4.658-0.932 7.453-4.658-0.466-5.124-7.453-9.315-6.056-4.192 0.932-8.85 1.397-12.577 3.727 2.795 5.59-4.658 2.329-3.726 3.26-6.987-4.192-13.042-7.453-20.495-4.658-15.837-5.124-35.4-2.795-49.84-0.931 0-2.329 0.466-4.658-0.466-5.124-0.932 2.329-3.726 1.397-3.26 1.397-8.85-6.055-17.7-9.782-27.016-14.905-8.384 0.932-16.303-3.261-18.632-5.59-6.521-6.055-13.974-2.795-20.029-4.192-13.042-3.261-17.7-16.769-19.098-26.084-0.932-4.658-4.658-6.521-6.055-6.056-6.055-19.563-15.371-37.263-22.824-55.429-1.863-4.658-1.397-9.316-1.397-14.44 2.329 0.932 4.658 0.466 4.192-2.794-2.329-15.371-7.918-27.016-13.974-38.195 3.261-15.837 3.726-34.469 11.179-48.443 6.521-12.576 18.632-19.098 27.016-29.811 2.795-3.726 2.795-8.85 5.59-12.11 9.316-9.316 18.632-19.098 28.879-27.482 4.658-3.726 10.247 0 17.234-1.397 2.329-8.384 11.645-15.837 20.495-13.508 3.726 0.932 11.179-8.85 13.508-9.782 3.726-1.397 1.863 3.726 1.863 6.987 8.85-6.987 20.961-10.713 32.14-14.906" fill="#233565" data-fill-palette-color="tertiary"></path></g><g transform="matrix(1,0,0,1,64,124.73788511212398)"><svg viewBox="0 0 192 110.52422977575205" height="110.52422977575205" width="192"><g><svg viewBox="0 0 192 110.52422977575205" height="110.52422977575205" width="192"><g><svg viewBox="0 0 192 110.52422977575205" height="110.52422977575205" width="192"><g><svg viewBox="0 0 192 110.52422977575205" height="110.52422977575205" width="192"><g><svg viewBox="0 0 192 110.52422977575205" height="110.52422977575205" width="192"><g><svg viewBox="0 0 192 62.65815861440292" height="62.65815861440292" width="192"><g transform="matrix(1,0,0,1,0,0)"><svg width="192" viewBox="1.2000000476837158 -35.29999923706055 109.69000244140625 35.79999923706055" height="62.65815861440292" data-palette-color="#233565"><path d="M16.2-8.8L16.2-15.75Q16.2-17.15 15.48-17.98 14.75-18.8 13.35-18.8L13.35-18.8Q12.05-18.8 11.13-18.1 10.2-17.4 9.95-15.45L9.95-15.45 1.4-17Q1.9-20.9 5.05-23.2 8.2-25.5 14.05-25.5L14.05-25.5Q18.05-25.5 20.78-24.38 23.5-23.25 24.85-21.1 26.2-18.95 26.2-15.95L26.2-15.95 26.2-7.55Q26.2-5.55 28.05-5.55L28.05-5.55Q28.8-5.55 29.2-5.75L29.2-5.75 28.7-0.3Q27.05 0.5 24.6 0.5L24.6 0.5Q22.45 0.5 20.8-0.18 19.15-0.85 18.2-2.15 17.25-3.45 17.25-5.55L17.25-5.55 17.25-5.95 18.25-6.1Q18.25-4.1 17.03-2.6 15.8-1.1 13.83-0.3 11.85 0.5 9.45 0.5L9.45 0.5Q6.85 0.5 5-0.3 3.15-1.1 2.18-2.6 1.2-4.1 1.2-6.25L1.2-6.25Q1.2-9 2.88-10.75 4.55-12.5 7.95-13.15L7.95-13.15 17-15.05 16.95-10.8 13.25-9.95Q12-9.7 11.43-9.13 10.85-8.55 10.85-7.55L10.85-7.55Q10.85-6.6 11.5-6.08 12.15-5.55 13.1-5.55L13.1-5.55Q13.75-5.55 14.3-5.75 14.85-5.95 15.28-6.35 15.7-6.75 15.95-7.35 16.2-7.95 16.2-8.8L16.2-8.8ZM39.9 0.5L39.9 0.5Q37.35 0.5 35.47-0.38 33.6-1.25 32.57-3.18 31.55-5.1 31.55-8.2L31.55-8.2 31.55-25 41.65-25 41.65-10.55Q41.65-8.65 42.35-7.85 43.05-7.05 44.4-7.05L44.4-7.05Q45.1-7.05 45.7-7.33 46.3-7.6 46.72-8.15 47.15-8.7 47.37-9.6 47.6-10.5 47.6-11.7L47.6-11.7 47.6-25 57.7-25 57.7 0 48.65 0 48.4-5Q47.25-2.25 45.1-0.88 42.95 0.5 39.9 0.5ZM64.65-30.45L74.75-33.25 74.75-9.6Q74.75-7.85 75.52-7.1 76.3-6.35 77.85-6.35L77.85-6.35Q78.95-6.35 79.75-6.55 80.55-6.75 81.25-7.2L81.25-7.2 81.9-1.3Q80.7-0.45 78.65 0.03 76.6 0.5 74.65 0.5L74.65 0.5Q71.45 0.5 69.22-0.35 67-1.2 65.82-3.05 64.65-4.9 64.65-8L64.65-8 64.65-30.45ZM60.55-25L81.55-25 81.55-18.05 60.55-18.05 60.55-25ZM94.84 0L84.74 0 84.74-35.3 94.84-35.3 94.84-20.15Q95.89-22.75 97.92-24.13 99.94-25.5 102.69-25.5L102.69-25.5Q105.24-25.5 107.07-24.53 108.89-23.55 109.89-21.63 110.89-19.7 110.89-16.9L110.89-16.9 110.89 0 100.79 0 100.79-14.2Q100.79-16.35 100.12-17.15 99.44-17.95 98.24-17.95L98.24-17.95Q97.24-17.95 96.47-17.45 95.69-16.95 95.27-15.88 94.84-14.8 94.84-13.15L94.84-13.15 94.84 0Z" opacity="1" transform="matrix(1,0,0,1,0,0)" fill="#233565" class="undefined-text-0" data-fill-palette-color="primary" id="text-0"></path></svg></g></svg></g><g transform="matrix(1,0,0,1,0,71.80148775205106)"><svg viewBox="0 0 192 38.722742023701" height="38.722742023701" width="192"><g transform="matrix(1,0,0,1,0,0)"><svg width="192" viewBox="2.4700000286102295 -38.75 248.39999389648438 50.099998474121094" height="38.722742023701" data-palette-color="#233565"><path d="M17.48-27.25L17.48-27.25Q19.8-27.25 21.69-26.38 23.58-25.51 24.94-24.13 26.29-22.75 27.03-21.04 27.76-19.34 27.76-17.63L27.76-17.63Q27.76-16.11 26.83-14.59 25.9-13.06 24.23-11.84 22.56-10.62 20.21-9.86 17.87-9.11 15.06-9.11L15.06-9.11Q13.6-9.11 11.99-9.4L11.99-9.4Q12.08-8.35 12.6-7.59 13.11-6.84 13.89-6.35 14.67-5.86 15.66-5.63 16.65-5.4 17.7-5.4L17.7-5.4Q18.87-5.4 19.96-5.6 21.04-5.81 22.05-6.15 23.05-6.49 23.97-6.91 24.9-7.32 25.73-7.74L25.73-7.74Q25.95-7.79 26.11-7.82 26.27-7.86 26.42-7.86L26.42-7.86Q26.42-7.86 26.4-7.47 26.39-7.08 26.39-6.37 26.39-5.66 26.38-4.66 26.37-3.66 26.34-2.44L26.34-2.44Q26.42-2.32 26.44-2.2 26.46-2.08 26.46-2L26.46-2Q26.46-1.71 25.93-1.37 25.39-1.03 24.52-0.66 23.66-0.29 22.55 0.05 21.44 0.39 20.29 0.67 19.14 0.95 18.07 1.11 16.99 1.27 16.19 1.27L16.19 1.27Q13.55 1.27 11.07 0.35 8.59-0.56 6.68-2.27 4.76-3.98 3.61-6.42 2.47-8.86 2.47-11.91L2.47-11.91Q2.47-15.11 3.56-17.91 4.66-20.7 6.65-22.78 8.64-24.85 11.4-26.05 14.16-27.25 17.48-27.25ZM17.19-20.75L17.19-20.75Q16.19-20.75 15.34-20.32 14.5-19.9 13.81-19.1 13.11-18.31 12.6-17.2 12.08-16.09 11.77-14.75L11.77-14.75Q14.28-15.19 15.94-15.67 17.6-16.16 18.6-16.66 19.6-17.16 20.02-17.66 20.43-18.16 20.43-18.63L20.43-18.63Q20.43-19.07 20.1-19.46 19.78-19.85 19.29-20.14 18.8-20.43 18.23-20.59 17.65-20.75 17.19-20.75ZM60.46-27.66L57.95-4.91Q57.92-4.81 57.92-4.72 57.92-4.64 57.92-4.57L57.92-4.57Q57.92-3.96 58.12-3.55 58.31-3.15 58.55-2.89 58.78-2.64 58.97-2.48 59.17-2.32 59.17-2.2L59.17-2.2Q59.17-1.86 58.44-1.56L58.44-1.56 51.87 1.25Q51.84 1.27 51.7 1.27L51.7 1.27Q51.5 1.27 51.31 0.93 51.11 0.59 50.93 0.06 50.75-0.46 50.59-1.06 50.43-1.66 50.31-2.17L50.31-2.17Q48.77-0.39 46.99 0.44 45.2 1.27 43.45 1.27L43.45 1.27Q41.4 1.27 39.44 0.37 37.49-0.54 35.98-2.21 34.46-3.88 33.55-6.25 32.63-8.62 32.63-11.57L32.63-11.57Q32.63-15.06 33.64-17.94 34.66-20.83 36.39-22.9 38.12-24.98 40.43-26.11 42.74-27.25 45.33-27.25L45.33-27.25Q47.16-27.25 48.79-26.5 50.43-25.76 51.89-24.58L51.89-24.58Q52.04-25.32 52.06-25.76 52.09-26.2 52.17-26.44 52.26-26.68 52.5-26.77 52.75-26.86 53.31-26.9L53.31-26.9Q55.07-27.15 56.81-27.36 58.56-27.56 60.46-27.66L60.46-27.66ZM49.62-6.88L50.65-14.11Q50.89-15.5 50.98-16.74 51.06-17.97 51.11-18.99L51.11-18.99Q50.72-19.29 50.27-19.6 49.82-19.92 49.29-20.2 48.77-20.48 48.19-20.65 47.62-20.83 46.99-20.83L46.99-20.83Q45.67-20.83 44.78-19.97 43.89-19.12 43.34-17.87 42.79-16.63 42.56-15.23 42.32-13.84 42.32-12.77L42.32-12.77Q42.32-8.91 43.34-7.12 44.35-5.32 46.16-5.32L46.16-5.32Q46.89-5.32 47.79-5.74 48.7-6.15 49.62-6.88L49.62-6.88ZM66.14-0.07L65.82-6.74Q65.82-6.76 65.81-6.77 65.8-6.79 65.8-6.81L65.8-6.81Q65.8-7.13 66.14-7.13L66.14-7.13Q66.36-7.13 66.53-6.96L66.53-6.96Q67.51-6.03 68.77-5.44 70.02-4.86 71.49-4.86L71.49-4.86Q71.88-4.86 72.39-4.94 72.9-5.03 73.37-5.22 73.83-5.42 74.14-5.75 74.44-6.08 74.44-6.57L74.44-6.57Q74.44-7.1 74.17-7.56 73.9-8.01 73.46-8.3L73.46-8.3Q73.22-8.47 72.61-8.9 72-9.33 71.3-9.81 70.61-10.3 69.99-10.74 69.36-11.18 69.12-11.38L69.12-11.38Q68.02-12.21 67.37-13.06 66.73-13.92 66.38-14.83 66.04-15.75 65.95-16.75 65.85-17.75 65.85-18.87L65.85-18.87Q65.85-20.58 66.75-22.09 67.65-23.61 69.13-24.76 70.61-25.9 72.49-26.57 74.37-27.25 76.32-27.25L76.32-27.25Q77.93-27.25 79.5-26.76 81.06-26.27 82.4-25.1L82.4-25.1Q82.52-23.56 82.57-22.07 82.62-20.58 82.72-18.95L82.72-18.95Q82.72-18.63 82.57-18.52 82.42-18.41 82.23-18.41L82.23-18.41Q82.06-18.41 81.94-18.53L81.94-18.53Q81.38-19.07 80.79-19.59 80.2-20.12 79.56-20.52 78.91-20.92 78.18-21.18 77.44-21.44 76.61-21.44L76.61-21.44Q76.1-21.44 75.59-21.35 75.08-21.26 74.66-21.03 74.25-20.8 73.99-20.41 73.73-20.02 73.73-19.41L73.73-19.41Q73.73-18.7 73.9-18.19 74.08-17.68 74.71-17.19L74.71-17.19 79.25-14.11Q80.5-13.26 81.27-12.44 82.03-11.62 82.47-10.82 82.91-10.01 83.07-9.22 83.23-8.42 83.23-7.64L83.23-7.64Q83.23-5.44 82.22-3.77 81.2-2.1 79.59-0.99 77.98 0.12 75.94 0.7 73.9 1.27 71.85 1.27L71.85 1.27Q70.29 1.27 68.84 0.94 67.39 0.61 66.14-0.07L66.14-0.07ZM104.17-0.95L98.8 11.13Q98.75 11.23 98.69 11.29 98.63 11.35 98.48 11.35L98.48 11.35Q98.33 11.35 98.26 11.33L98.26 11.33Q97.38 11.01 96.6 10.79 95.82 10.57 95.05 10.39 94.28 10.21 93.47 10.05 92.67 9.89 91.76 9.69L91.76 9.69Q91.52 9.64 91.39 9.53 91.25 9.42 91.25 9.16L91.25 9.16Q91.25 9.08 91.34 8.8 91.42 8.52 91.76 7.65 92.11 6.79 92.81 5.14 93.52 3.49 94.77 0.71L94.77 0.71Q94.4-0.51 93.94-2.22 93.47-3.93 92.95-5.96 92.42-7.98 91.86-10.24 91.3-12.5 90.73-14.81 90.15-17.11 89.58-19.37 89.01-21.63 88.47-23.68L88.47-23.68Q88.3-24.07 88.27-24.33 88.25-24.58 88.25-24.76L88.25-24.76Q88.25-25.1 88.64-25.2L88.64-25.2Q90.54-25.61 92.59-26.06 94.65-26.51 96.48-27.22L96.48-27.22Q96.55-27.25 96.7-27.25L96.7-27.25Q97.01-27.25 97.04-27L97.04-27 100.02-10.6Q100.11-10.89 100.4-11.66 100.68-12.43 101.05-13.5 101.43-14.58 101.9-15.87 102.36-17.16 102.85-18.51 103.34-19.85 103.81-21.18 104.29-22.51 104.7-23.66 105.12-24.8 105.42-25.68 105.73-26.56 105.9-27L105.9-27Q106-27.25 106.27-27.25L106.27-27.25Q106.34-27.25 106.36-27.23 106.39-27.22 106.46-27.22L106.46-27.22Q108.29-26.51 110.22-26.06 112.15-25.61 114.05-25.2L114.05-25.2Q114.52-25.1 114.52-24.66L114.52-24.66Q114.52-24.34 114.23-23.68L114.23-23.68 104.17-0.95ZM158.47-27.66L155.95-4.91Q155.93-4.81 155.93-4.72 155.93-4.64 155.93-4.57L155.93-4.57Q155.93-3.96 156.12-3.55 156.32-3.15 156.55-2.89 156.78-2.64 156.98-2.48 157.17-2.32 157.17-2.2L157.17-2.2Q157.17-1.86 156.44-1.56L156.44-1.56 149.87 1.25Q149.85 1.27 149.7 1.27L149.7 1.27Q149.51 1.27 149.31 0.93 149.12 0.59 148.93 0.06 148.75-0.46 148.59-1.06 148.43-1.66 148.31-2.17L148.31-2.17Q146.77-0.39 144.99 0.44 143.21 1.27 141.45 1.27L141.45 1.27Q139.4 1.27 137.45 0.37 135.49-0.54 133.98-2.21 132.47-3.88 131.55-6.25 130.63-8.62 130.63-11.57L130.63-11.57Q130.63-15.06 131.65-17.94 132.66-20.83 134.39-22.9 136.13-24.98 138.44-26.11 140.74-27.25 143.33-27.25L143.33-27.25Q145.16-27.25 146.8-26.5 148.43-25.76 149.9-24.58L149.9-24.58Q150.04-25.32 150.07-25.76 150.09-26.2 150.18-26.44 150.26-26.68 150.51-26.77 150.75-26.86 151.31-26.9L151.31-26.9Q153.07-27.15 154.82-27.36 156.56-27.56 158.47-27.66L158.47-27.66ZM147.63-6.88L148.65-14.11Q148.9-15.5 148.98-16.74 149.07-17.97 149.12-18.99L149.12-18.99Q148.73-19.29 148.27-19.6 147.82-19.92 147.3-20.2 146.77-20.48 146.2-20.65 145.63-20.83 144.99-20.83L144.99-20.83Q143.67-20.83 142.78-19.97 141.89-19.12 141.34-17.87 140.79-16.63 140.56-15.23 140.33-13.84 140.33-12.77L140.33-12.77Q140.33-8.91 141.34-7.12 142.35-5.32 144.16-5.32L144.16-5.32Q144.89-5.32 145.8-5.74 146.7-6.15 147.63-6.88L147.63-6.88ZM191.81-27L189.51-3.03Q189.44-2.22 189.32-1.92 189.19-1.61 188.78-1.51L188.78-1.51Q186.7-0.93 184.44-0.33 182.19 0.27 180.06 1.25L180.06 1.25Q179.99 1.27 179.84 1.27L179.84 1.27Q179.65 1.27 179.61 1.17 179.57 1.07 179.57 0.95L179.57 0.95Q179.57 0.9 179.59 0.78 179.6 0.66 179.65 0.33 179.7 0 179.78-0.59 179.87-1.17 180.01-2.15L180.01-2.15Q177.28-0.37 175.17 0.45 173.06 1.27 171.42 1.27L171.42 1.27Q167.34 1.27 165.48-0.7 163.61-2.66 163.61-6.57L163.61-6.57Q163.61-7.28 163.63-8.02 163.66-8.76 163.78-9.55L163.78-9.55Q164.05-12.43 164.24-14.49 164.44-16.55 164.56-17.99 164.68-19.43 164.77-20.35 164.85-21.26 164.91-21.88 164.97-22.49 165.01-22.89 165.05-23.29 165.1-23.68L165.1-23.68Q165.19-24.46 165.28-24.78 165.37-25.1 165.83-25.2L165.83-25.2Q166.98-25.42 168.01-25.6 169.05-25.78 170.07-25.99 171.08-26.2 172.13-26.44 173.18-26.68 174.35-27.03L174.35-27.03Q174.4-27.03 174.45-27.04 174.5-27.05 174.55-27.05L174.55-27.05Q174.84-27.05 174.84-26.86L174.84-26.86 174.84-26.81Q174.74-25.98 174.67-25.24 174.59-24.51 174.52-23.74 174.45-22.97 174.36-22.09 174.28-21.22 174.15-20.06 174.03-18.9 173.86-17.38 173.69-15.87 173.45-13.87L173.45-13.87Q173.3-12.4 173.15-10.95 173.01-9.5 173.01-8.25L173.01-8.25Q173.01-7.57 173.1-6.99 173.2-6.42 173.46-6.02 173.71-5.62 174.13-5.4 174.55-5.18 175.2-5.18L175.2-5.18Q175.72-5.18 176.6-5.41 177.47-5.64 178.35-6.21 179.23-6.79 179.9-7.73 180.58-8.67 180.67-10.11L180.67-10.11Q180.84-12.52 180.98-14.15 181.11-15.77 181.21-16.88 181.31-17.99 181.38-18.75 181.45-19.51 181.52-20.2 181.58-20.9 181.63-21.69 181.67-22.49 181.72-23.68L181.72-23.68Q181.8-24.49 181.91-24.79 182.02-25.1 182.46-25.2L182.46-25.2Q184.68-25.63 187-26.09 189.32-26.54 191.54-27.25L191.54-27.25Q191.73-27.25 191.77-27.19 191.81-27.12 191.81-27L191.81-27ZM214.87-18.82L210.33-18.82Q209.98-16.26 209.68-13.71 209.37-11.16 209.3-8.94L209.3-8.94Q209.3-7.98 209.45-7.35 209.59-6.71 209.87-6.35 210.15-5.98 210.55-5.82 210.94-5.66 211.42-5.66L211.42-5.66Q212.21-5.66 213.13-5.9 214.06-6.13 214.99-6.49L214.99-6.49Q215.28-6.62 215.49-6.68 215.7-6.74 215.84-6.74L215.84-6.74Q216.09-6.74 216.17-6.52 216.26-6.3 216.34-5.75 216.43-5.2 216.6-4.27 216.77-3.34 217.16-1.93L217.16-1.93Q217.19-1.81 217.2-1.72 217.21-1.64 217.21-1.56L217.21-1.56Q217.21-1.22 216.95-1.07 216.7-0.93 216.11-0.73L216.11-0.73Q215.11-0.39 214-0.04 212.89 0.32 211.8 0.61 210.72 0.9 209.71 1.09 208.71 1.27 207.96 1.27L207.96 1.27Q203.88 1.27 202.01-0.76 200.14-2.78 200.14-6.93L200.14-6.93Q200.14-7.64 200.19-8.39 200.24-9.13 200.32-9.94L200.32-9.94Q200.56-12.38 200.74-14.56 200.93-16.75 201.12-18.75L201.12-18.75 198.56-18.75Q197.24-18.75 196.65-18.86 196.07-18.97 196.07-19.31L196.07-19.31Q196.07-19.41 196.31-19.84 196.56-20.26 196.93-20.86 197.31-21.46 197.75-22.14 198.19-22.83 198.59-23.43 199-24.02 199.29-24.46 199.58-24.9 199.66-25L199.66-25 201.39-25Q201.61-26.86 201.74-28.11 201.88-29.37 201.96-30.2 202.05-31.03 202.12-31.48 202.2-31.93 202.28-32.15 202.37-32.37 202.5-32.43 202.63-32.5 202.85-32.54L202.85-32.54Q203.95-32.76 204.98-32.95 206-33.13 207.03-33.33 208.05-33.52 209.12-33.78 210.18-34.03 211.33-34.38L211.33-34.38Q211.4-34.38 211.42-34.39 211.45-34.4 211.52-34.4L211.52-34.4Q211.81-34.4 211.81-34.2L211.81-34.2 211.81-34.16Q211.69-32.81 211.44-30.42 211.18-28.03 210.86-25L210.86-25 217.41-25Q217.6-25 217.78-24.87 217.97-24.73 217.97-24.41L217.97-24.41Q217.97-24.29 217.67-23.54 217.38-22.78 216.84-21.56L216.84-21.56 215.96-19.58Q215.79-19.21 215.61-19.04 215.43-18.87 214.87-18.82L214.87-18.82ZM222.18 0.37L224.96-35.5Q224.96-35.64 224.95-35.77 224.94-35.89 224.94-36.01L224.94-36.01Q224.94-36.23 225.11-36.39 225.28-36.55 225.94-36.72L225.94-36.72 232.8-38.35Q233.07-38.4 233.51-38.57 233.95-38.75 234.36-38.75L234.36-38.75Q235.22-38.75 235.22-37.96L235.22-37.96Q235.22-37.92 235.14-36.96 235.07-36.01 234.95-34.59 234.83-33.18 234.68-31.51 234.53-29.83 234.39-28.32 234.24-26.81 234.12-25.67 234-24.54 233.92-24.19L233.92-24.19Q235.07-24.83 236.32-25.39 237.56-25.95 238.82-26.37 240.08-26.78 241.33-27.01 242.59-27.25 243.76-27.25L243.76-27.25Q245.25-27.25 246.55-26.82 247.84-26.39 248.8-25.4 249.77-24.41 250.32-22.81 250.87-21.22 250.87-18.9L250.87-18.9Q250.87-18.31 250.84-17.69 250.82-17.07 250.74-16.41L250.74-16.41 249.69-6.42Q249.57-5.4 249.55-4.28 249.52-3.17 249.52-2L249.52-2Q249.52-1.81 249.54-1.67 249.55-1.54 249.55-1.44L249.55-1.44Q249.55-1.22 249.36-1.1 249.18-0.98 248.55-0.78L248.55-0.78 242.57 0.88Q242.3 0.95 241.86 1.11 241.42 1.27 241 1.27L241 1.27Q240.59 1.27 240.37 1.09 240.15 0.9 240.15 0.37L240.15 0.37Q240.32-1.46 240.43-2.59 240.54-3.71 240.6-4.38 240.66-5.05 240.71-5.41 240.76-5.76 240.78-6.04 240.81-6.32 240.86-6.68 240.91-7.03 240.97-7.71 241.03-8.4 241.14-9.52 241.25-10.64 241.42-12.48L241.42-12.48Q241.52-13.45 241.63-14.42 241.74-15.38 241.74-16.19L241.74-16.19Q241.74-17.21 241.63-18.05 241.52-18.9 241.24-19.49 240.95-20.09 240.47-20.43 239.98-20.78 239.22-20.78L239.22-20.78Q238.66-20.78 237.69-20.53 236.73-20.29 235.77-19.73 234.8-19.17 234.06-18.25 233.31-17.33 233.21-15.99L233.21-15.99Q233.02-14.11 232.91-12.92 232.8-11.72 232.73-10.94 232.65-10.16 232.62-9.69 232.58-9.23 232.56-8.84L232.56-8.84Q232.53-8.72 232.48-8.24 232.43-7.76 232.36-7.1 232.29-6.45 232.21-5.7 232.14-4.96 232.08-4.3 232.02-3.64 231.98-3.16 231.95-2.69 231.95-2.56L231.95-2.56Q231.95-2.37 231.96-2.23 231.97-2.1 231.97-1.98L231.97-1.98Q231.97-1.78 231.79-1.65 231.6-1.51 230.97-1.34L230.97-1.34 224.6 0.88Q224.33 0.98 223.89 1.12 223.45 1.27 223.03 1.27L223.03 1.27Q222.67 1.27 222.42 1.06 222.18 0.85 222.18 0.37L222.18 0.37Z" opacity="1" transform="matrix(1,0,0,1,0,0)" fill="#233565" class="undefined-text-1" data-fill-palette-color="secondary" id="text-1"></path></svg></g></svg></g></svg></g></svg></g><g></g></svg></g></svg></g></svg></g></svg></g></svg><rect width="320" height="360" fill="none" stroke="none" visibility="hidden"></rect></g><defs></defs></svg>